<svg width="138" height="37" viewBox="0 0 138 37" fill="none" xmlns="http://www.w3.org/2000/svg">
<path d="M53.6645 19.4965H50.208C50.1449 19.0493 50.016 18.6521 49.8213 18.3049C49.6267 17.9524 49.3768 17.6526 49.0717 17.4053C48.7665 17.158 48.414 16.9686 48.0142 16.8371C47.6196 16.7056 47.1909 16.6398 46.7279 16.6398C45.8914 16.6398 45.1628 16.8476 44.542 17.2633C43.9212 17.6736 43.4398 18.2734 43.0979 19.0625C42.7559 19.8464 42.5849 20.7986 42.5849 21.9192C42.5849 23.0713 42.7559 24.0394 43.0979 24.8232C43.4451 25.6071 43.9291 26.199 44.5499 26.5988C45.1707 26.9986 45.8888 27.1985 46.7042 27.1985C47.1619 27.1985 47.5854 27.138 47.9747 27.017C48.3693 26.896 48.7192 26.7198 49.0243 26.4883C49.3294 26.2516 49.582 25.9649 49.7819 25.6282C49.9871 25.2915 50.1291 24.9074 50.208 24.476L53.6645 24.4918C53.575 25.2336 53.3514 25.9491 52.9937 26.6383C52.6412 27.3222 52.1651 27.9351 51.5653 28.477C50.9709 29.0136 50.2606 29.4397 49.4347 29.7554C48.614 30.0658 47.6854 30.221 46.649 30.221C45.2075 30.221 43.9186 29.8948 42.7822 29.2424C41.6511 28.5901 40.7567 27.6457 40.0991 26.4094C39.4468 25.1731 39.1206 23.6763 39.1206 21.9192C39.1206 20.1568 39.452 18.6574 40.1149 17.4211C40.7778 16.1848 41.6774 15.2431 42.8138 14.596C43.9501 13.9436 45.2285 13.6174 46.649 13.6174C47.5854 13.6174 48.4535 13.7489 49.2532 14.012C50.0581 14.275 50.7709 14.6591 51.3917 15.1641C52.0125 15.6639 52.5176 16.2768 52.9069 17.0028C53.3015 17.7289 53.554 18.5601 53.6645 19.4965ZM56.0516 30V17.8788H59.3108V19.9937H59.437C59.658 19.2414 60.0289 18.6732 60.5497 18.2891C61.0705 17.8998 61.6703 17.7052 62.349 17.7052C62.5173 17.7052 62.6988 17.7157 62.8935 17.7367C63.0881 17.7578 63.2591 17.7867 63.4064 17.8235V20.8065C63.2486 20.7592 63.0303 20.7171 62.7514 20.6802C62.4726 20.6434 62.2174 20.625 61.986 20.625C61.4914 20.625 61.0495 20.7328 60.6602 20.9485C60.2761 21.159 59.971 21.4536 59.7448 21.8324C59.5238 22.2112 59.4134 22.6478 59.4134 23.1424V30H56.0516ZM67.5889 34.5455C67.1627 34.5455 66.7629 34.5113 66.3894 34.4429C66.0211 34.3797 65.716 34.2982 65.474 34.1982L66.2315 31.6888C66.6261 31.8098 66.9812 31.8755 67.2969 31.886C67.6178 31.8966 67.894 31.8229 68.1255 31.6651C68.3622 31.5073 68.5542 31.239 68.7015 30.8602L68.8988 30.3472L64.5507 17.8788H68.086L70.5955 26.7803H70.7217L73.2549 17.8788H76.8139L72.1027 31.31C71.8765 31.9623 71.5688 32.5305 71.1795 33.0145C70.7954 33.5038 70.3088 33.8799 69.7195 34.143C69.1303 34.4113 68.4201 34.5455 67.5889 34.5455ZM78.5342 34.5455V17.8788H81.8486V19.9148H81.9986C82.1459 19.5886 82.359 19.2572 82.6378 18.9205C82.9219 18.5785 83.2901 18.2944 83.7426 18.0682C84.2003 17.8367 84.7685 17.721 85.4471 17.721C86.331 17.721 87.1464 17.9524 87.8935 18.4154C88.6405 18.8731 89.2376 19.5649 89.6848 20.4908C90.132 21.4115 90.3556 22.5663 90.3556 23.9552C90.3556 25.3072 90.1373 26.4489 89.7006 27.3801C89.2692 28.306 88.68 29.0083 87.9329 29.4871C87.1911 29.9605 86.3599 30.1973 85.4392 30.1973C84.7869 30.1973 84.2318 30.0894 83.7741 29.8737C83.3217 29.658 82.9508 29.3871 82.6615 29.0609C82.3721 28.7295 82.1511 28.3954 81.9986 28.0587H81.896V34.5455H78.5342ZM81.825 23.9394C81.825 24.6601 81.9249 25.2888 82.1248 25.8254C82.3248 26.3621 82.6141 26.7803 82.9929 27.0802C83.3717 27.3748 83.832 27.5221 84.3739 27.5221C84.921 27.5221 85.384 27.3722 85.7628 27.0723C86.1416 26.7672 86.4283 26.3463 86.6229 25.8097C86.8229 25.2678 86.9228 24.6444 86.9228 23.9394C86.9228 23.2397 86.8255 22.6242 86.6308 22.0928C86.4362 21.5614 86.1495 21.1458 85.7707 20.846C85.3919 20.5461 84.9263 20.3961 84.3739 20.3961C83.8268 20.3961 83.3638 20.5408 82.985 20.8302C82.6115 21.1195 82.3248 21.5299 82.1248 22.0612C81.9249 22.5926 81.825 23.2186 81.825 23.9394ZM99.044 17.8788V20.404H91.7445V17.8788H99.044ZM93.4017 14.9747H96.7634V26.2753C96.7634 26.5856 96.8108 26.8277 96.9055 27.0013C97.0002 27.1696 97.1317 27.288 97.3 27.3564C97.4736 27.4248 97.6736 27.459 97.8998 27.459C98.0576 27.459 98.2154 27.4458 98.3733 27.4195C98.5311 27.3879 98.6521 27.3643 98.7363 27.3485L99.265 29.8501C99.0966 29.9027 98.8599 29.9632 98.5548 30.0316C98.2496 30.1052 97.8787 30.1499 97.4421 30.1657C96.6319 30.1973 95.9217 30.0894 95.3114 29.8422C94.7064 29.5949 94.2355 29.2109 93.8988 28.69C93.5621 28.1692 93.3964 27.5116 93.4017 26.7172V14.9747ZM106.58 30.2367C105.355 30.2367 104.294 29.9763 103.4 29.4555C102.511 28.9294 101.824 28.1981 101.34 27.2617C100.856 26.32 100.614 25.2283 100.614 23.9867C100.614 22.7346 100.856 21.6404 101.34 20.7039C101.824 19.7622 102.511 19.0309 103.4 18.5101C104.294 17.984 105.355 17.721 106.58 17.721C107.806 17.721 108.864 17.984 109.753 18.5101C110.647 19.0309 111.336 19.7622 111.82 20.7039C112.304 21.6404 112.546 22.7346 112.546 23.9867C112.546 25.2283 112.304 26.32 111.82 27.2617C111.336 28.1981 110.647 28.9294 109.753 29.4555C108.864 29.9763 107.806 30.2367 106.58 30.2367ZM106.596 27.6326C107.154 27.6326 107.619 27.4747 107.993 27.1591C108.366 26.8382 108.648 26.4015 108.837 25.8491C109.032 25.2967 109.129 24.668 109.129 23.9631C109.129 23.2581 109.032 22.6294 108.837 22.077C108.648 21.5246 108.366 21.088 107.993 20.767C107.619 20.4461 107.154 20.2857 106.596 20.2857C106.033 20.2857 105.56 20.4461 105.176 20.767C104.797 21.088 104.51 21.5246 104.315 22.077C104.126 22.6294 104.031 23.2581 104.031 23.9631C104.031 24.668 104.126 25.2967 104.315 25.8491C104.51 26.4015 104.797 26.8382 105.176 27.1591C105.56 27.4747 106.033 27.6326 106.596 27.6326ZM117.37 13.8384L120.629 19.3466H120.755L124.03 13.8384H127.889L122.957 21.9192L128 30H124.07L120.755 24.4839H120.629L117.315 30H113.4L118.459 21.9192L113.495 13.8384H117.37Z" fill="#F6F2F2"/>
<circle cx="16.7588" cy="20.2411" r="15.3078" stroke="#F05802" stroke-width="2.90196"/>
<g filter="url(#filter0_d_16_209)">
<path d="M14.2049 20.6486L7.29735 12.2831H12.6479L16.8377 17.3789L20.8152 12.2831H26.0384L19.5413 20.6345L26.4489 29H21.0983L16.7811 23.7769L12.7753 29H7.55213L14.2049 20.6486Z" fill="#F06000"/>
</g>
<defs>
<filter id="filter0_d_16_209" x="6.73148" y="11.8623" width="21.1538" height="18.7193" filterUnits="userSpaceOnUse" color-interpolation-filters="sRGB">
<feFlood flood-opacity="0" result="BackgroundImageFix"/>
<feColorMatrix in="SourceAlpha" type="matrix" values="0 0 0 0 0 0 0 0 0 0 0 0 0 0 0 0 0 0 127 0" result="hardAlpha"/>
<feOffset dx="0.435294" dy="0.580392"/>
<feGaussianBlur stdDeviation="0.500588"/>
<feComposite in2="hardAlpha" operator="out"/>
<feColorMatrix type="matrix" values="0 0 0 0 0 0 0 0 0 0 0 0 0 0 0 0 0 0 0.25 0"/>
<feBlend mode="normal" in2="BackgroundImageFix" result="effect1_dropShadow_16_209"/>
<feBlend mode="normal" in="SourceGraphic" in2="effect1_dropShadow_16_209" result="shape"/>
</filter>
</defs>
</svg>
